<svg width="240" height="234" viewBox="0 0 240 234" fill="none" xmlns="http://www.w3.org/2000/svg">
<g clip-path="url(#clip0_5_77)">
<path d="M42.5 1.88608e-05H197.5C203.083 -0.00524284 208.612 1.09046 213.77 3.22442C218.929 5.35838 223.616 8.48871 227.564 12.4362C231.511 16.3838 234.642 21.071 236.776 26.2297C238.91 31.3885 240.005 36.9174 240 42.5V191.5C240.005 197.083 238.91 202.612 236.776 207.77C234.642 212.929 231.511 217.616 227.564 221.564C223.616 225.511 218.929 228.642 213.77 230.776C208.612 232.91 203.083 234.005 197.5 234H42.5C36.9182 234.005 31.3901 232.91 26.232 230.777C21.074 228.643 16.3872 225.514 12.4398 221.567C8.49235 217.621 5.36182 212.935 3.22727 207.777C1.09272 202.62 -0.00395795 197.092 -1.16568e-05 191.51V42.5C-0.00527336 36.9174 1.09043 31.3885 3.22439 26.2297C5.35835 21.071 8.48868 16.3838 12.4362 12.4362C16.3838 8.48871 21.071 5.35838 26.2297 3.22442C31.3884 1.09046 36.9173 -0.00524284 42.5 1.88608e-05Z" fill="#00005B"/>
<path d="M94.26 140H57.1L49.52 163.59C49.4396 164.015 49.2031 164.394 48.857 164.653C48.5109 164.912 48.0803 165.033 47.65 164.99H28.83C27.71 164.99 27.43 164.43 27.71 163.21L59.91 70.73C60.1845 69.6196 60.5183 68.5247 60.91 67.45C61.4256 65.3644 61.7073 63.2279 61.75 61.08C61.7272 60.8224 61.8052 60.5661 61.9674 60.3647C62.1296 60.1633 62.3635 60.0326 62.62 60H88.55C89.21 60 89.77 60.28 89.86 60.84L126.18 163.43C126.46 164.55 126.18 165.02 125.18 165.02H104.27C103.915 165.053 103.56 164.958 103.269 164.753C102.978 164.547 102.769 164.245 102.68 163.9L94.26 140ZM62.9 120.09H88.27C87.71 118.03 86.87 115.5 85.93 112.88C84.99 110.26 84.15 107.26 83.22 104.27C82.29 101.28 81.35 98.19 80.32 95.1C79.29 92.01 78.45 89.1 77.61 86.21C76.77 83.32 76.11 80.78 75.36 78.44H75.17C74.2666 82.8011 73.1418 87.1133 71.8 91.36C70.3 96.13 68.8 101.19 67.21 106.15C66.0217 110.873 64.583 115.53 62.9 120.1V120.09Z" fill="#9999FF"/>
<path d="M202.84 86.2101V147.52C202.84 150.23 202.84 152.57 202.93 154.73C203.02 156.89 203.12 158.66 203.21 160.25C203.3 161.84 203.49 162.78 203.58 163.81C203.67 164.84 203.3 165.12 202.46 165.12H185.34C184.948 165.171 184.55 165.088 184.211 164.884C183.871 164.681 183.611 164.37 183.47 164L182.91 161.47C182.754 160.795 182.69 160.102 182.72 159.41C179.466 162.309 175.59 164.424 171.39 165.59C167.765 166.606 164.015 167.111 160.25 167.09C156.561 167.15 152.889 166.582 149.39 165.41C146.147 164.284 143.224 162.39 140.87 159.89C138.278 157.119 136.355 153.79 135.25 150.16C133.833 145.553 133.158 140.749 133.25 135.93V86.3001C133.228 86.1481 133.236 85.9932 133.274 85.8444C133.312 85.6957 133.38 85.5561 133.473 85.434C133.567 85.3119 133.683 85.2097 133.817 85.1334C133.95 85.0572 134.097 85.0084 134.25 84.9901H153.7C153.852 84.9691 154.007 84.9787 154.155 85.0184C154.303 85.0581 154.442 85.127 154.563 85.2211C154.684 85.3152 154.785 85.4326 154.86 85.5664C154.935 85.7002 154.983 85.8476 155 86.0001V133.27C155 137.67 156 141.13 157.9 143.66C159.8 146.19 163.7 147.5 168.2 147.5C170.521 147.516 172.825 147.109 175 146.3C177.244 145.53 179.358 144.424 181.27 143.02V86.2101C181.27 85.5501 181.74 85.0901 182.67 85.0901H201.77C202.029 85.0556 202.292 85.1243 202.501 85.2814C202.711 85.4384 202.85 85.6713 202.89 85.9301C202.862 85.9704 202.843 86.0162 202.834 86.0646C202.826 86.1129 202.828 86.1625 202.84 86.2101Z" fill="#9999FF"/>
</g>
<defs>
<clipPath id="clip0_5_77">
<rect width="240" height="234.01" fill="white"/>
</clipPath>
</defs>
</svg>
