<svg width="512" height="512" viewBox="0 0 512 512" fill="none" xmlns="http://www.w3.org/2000/svg">
<path d="M221.404 400.463C216.448 398.885 216.43 398.188 220.996 384.325C225.556 370.48 223.466 357.623 215.014 347.517C203.519 333.774 197.984 322.048 196.22 307.7C194.705 295.382 194.225 294.406 189.21 293.443C185.847 292.797 181.2 294.076 170.125 298.696C154.013 305.417 150.175 308.368 146.373 316.962C144.376 321.476 144.136 324.18 145.269 329.402C146.652 335.779 152.322 346.043 154.468 346.057C155.028 346.061 158.122 348.18 161.344 350.767C166.69 355.059 167.057 355.805 165.544 359.304C162.257 366.906 154.448 376.123 151.293 376.123C149.524 376.123 142.296 371.061 134.341 364.249C118.715 350.869 118.06 349.528 116.446 327.597C114.521 301.429 120.955 289.217 149.615 264.648L167.59 249.238L168.738 239.891C169.921 230.255 168.253 207.31 165.448 194.645C163.79 187.163 158.321 180.037 153.131 178.597C147.476 177.028 144.162 180.265 139.86 191.556C135.219 203.739 130.783 207.989 122.709 207.989C117.68 207.989 112.988 204.772 109.747 199.104C107.425 195.042 106.077 170.641 107.465 157.797C108.133 151.619 108.171 145.363 107.551 143.896C106.54 141.508 97.8402 136.344 77.3289 125.956C73.6002 124.068 69.2532 121.525 67.669 120.306C66.0848 119.086 61.9738 116.845 58.5336 115.324C50.7411 111.88 30.4233 100 32.3254 100C35.9239 100 51.1739 104.694 59.2923 108.3C64.2481 110.501 68.9921 112.303 69.8344 112.303C70.6767 112.303 80.2312 115.378 91.0666 119.137C101.902 122.896 111.805 125.972 113.074 125.972C116.088 125.972 116.561 123.365 115.595 112.066C115.156 106.933 115.176 102.734 115.638 102.734C116.1 102.734 118.097 103.725 120.075 104.936C126.118 108.636 139.117 110.902 154.396 110.919C169.005 110.937 188.074 113.834 195.362 117.146C205.817 121.897 217.945 136.737 233.329 163.604C244.024 182.283 255.516 190.192 271.986 190.209C278.644 190.217 296.408 187.472 320.462 182.72C340.297 178.802 366.48 177.921 376.644 180.83C389.043 184.379 405.437 193.867 418.992 205.339C431.679 216.076 433.633 218.459 441.426 232.707C450.727 249.71 460.992 273.876 470.12 300.258C471.421 304.017 474.168 310.34 476.225 314.309C481.714 324.9 481.44 325.546 471.466 325.546C460.641 325.546 455.564 323.839 448.468 317.813C441.662 312.034 439.884 308.498 429.231 279.554C423.774 264.729 418.462 255.832 415.067 255.832C412.741 255.832 408.033 271.719 408.033 279.568C408.033 285.143 411.526 292.675 420.558 306.571C435.231 329.146 442.95 361.058 439.86 386.375L438.526 397.311L428.747 397.718C413.352 398.359 413.506 398.573 413.506 376.558C413.506 353.122 411.91 348.046 401.567 338.594C397.271 334.668 387.633 323.514 380.149 313.806C372.665 304.099 365.497 296.157 364.222 296.157C361.29 296.157 359.828 304.14 359.672 320.999C359.57 332.102 359.132 333.981 355.857 337.402C346.976 346.677 340.743 363.566 336.9 388.762C336.049 394.339 335.32 395.383 331.705 396.194C326.389 397.388 311.659 397.583 310.39 396.477C309.295 395.523 311.213 380.378 315.565 355.619C317.217 346.221 319.019 333.611 319.571 327.597C320.554 316.89 318.358 296.829 315.76 292.771C314.68 291.083 309.178 290.718 283.449 290.623C266.393 290.561 247.689 289.999 241.884 289.376L231.328 288.243V292.927C231.328 297.943 232.614 302.365 241.212 326.913C244.24 335.559 248.627 348.74 250.962 356.204L255.207 369.775L251.625 380.809C249.655 386.878 246.731 394.15 245.127 396.969C242.298 401.942 241.967 402.092 234.033 401.987C229.535 401.928 223.852 401.242 221.404 400.463H221.404Z" fill="#499848"/>
</svg>
