<svg width="240" height="234" viewBox="0 0 240 234" fill="none" xmlns="http://www.w3.org/2000/svg">
<g clip-path="url(#clip0_5_67)">
<path d="M42.5 1.88608e-05H197.5C203.083 -0.00524284 208.612 1.09046 213.77 3.22442C218.929 5.35838 223.616 8.48871 227.564 12.4362C231.511 16.3838 234.642 21.071 236.776 26.2297C238.91 31.3885 240.005 36.9174 240 42.5V191.5C240.005 197.083 238.91 202.612 236.776 207.77C234.642 212.929 231.511 217.616 227.564 221.564C223.616 225.511 218.929 228.642 213.77 230.776C208.612 232.91 203.083 234.005 197.5 234H42.5C36.9174 234.005 31.3885 232.91 26.2297 230.776C21.071 228.642 16.3838 225.511 12.4362 221.564C8.48871 217.616 5.35838 212.929 3.22442 207.77C1.09046 202.612 -0.00524284 197.083 1.88608e-05 191.5V42.5C-0.00524284 36.9174 1.09046 31.3885 3.22442 26.2297C5.35838 21.071 8.48871 16.3838 12.4362 12.4362C16.3838 8.48871 21.071 5.35838 26.2297 3.22442C31.3885 1.09046 36.9174 -0.00524284 42.5 1.88608e-05Z" fill="#49021F"/>
<path d="M96.5 61.2V163.8C96.5 164.9 96 165.4 95.1 165.4H75.6C74.7 165.4 74.3 164.9 74.3 163.8V61.2C74.3 60.3 74.8 59.9 75.7 59.9H95.2C95.3516 59.8761 95.5065 59.8833 95.6552 59.9213C95.8039 59.9592 95.9433 60.027 96.0649 60.1206C96.1866 60.2141 96.2879 60.3315 96.3627 60.4655C96.4375 60.5995 96.4842 60.7474 96.5 60.9V61.2Z" fill="#FF3366"/>
<path d="M173.3 146.5V163.1C173.315 163.386 173.248 163.669 173.106 163.918C172.964 164.166 172.754 164.368 172.5 164.5C169.771 165.532 166.909 166.172 164 166.4C160.8 166.7 157.7 166.9 154.7 166.9C148.59 167.026 142.512 165.974 136.8 163.8C131.771 161.875 127.205 158.91 123.4 155.1C119.743 151.289 116.857 146.806 114.9 141.9C112.906 136.698 111.889 131.172 111.9 125.6C111.784 117.995 113.718 110.499 117.5 103.9C121.319 97.5576 126.823 92.3995 133.4 89C140.793 85.2299 149.002 83.3408 157.3 83.5C160.479 83.3974 163.66 83.5983 166.8 84.1C168.653 84.4043 170.489 84.8048 172.3 85.3C172.59 85.4934 172.819 85.7653 172.961 86.0839C173.103 86.4026 173.151 86.755 173.1 87.1L172.9 103.7C172.9 104.7 172.5 105 171.6 104.8C169.809 104.181 167.969 103.713 166.1 103.4C163.452 103.005 160.778 102.805 158.1 102.8C154.007 102.735 149.948 103.554 146.2 105.2C142.766 106.743 139.85 109.243 137.8 112.4C135.64 116.094 134.565 120.323 134.7 124.6C134.7 130.2 135.9 134.6 138.3 137.8C140.62 140.933 143.824 143.301 147.5 144.6C151.09 145.909 154.879 146.586 158.7 146.6C161.272 146.619 163.843 146.485 166.4 146.2C168.258 146.021 170.098 145.687 171.9 145.2C172.9 145.4 173.3 145.7 173.3 146.5Z" fill="#FF3366"/>
</g>
<defs>
<clipPath id="clip0_5_67">
<rect width="240" height="234" fill="white"/>
</clipPath>
</defs>
</svg>
