<svg width="512" height="512" viewBox="0 0 512 512" fill="none" xmlns="http://www.w3.org/2000/svg">
<path d="M255.705 0L477.41 128V384L255.705 512L34 384V128L255.705 0Z" fill="#673AB8"/>
<path d="M94.388 381.885C123.862 419.61 217.53 390.864 305.961 321.774C394.392 252.684 444.944 168.753 415.469 131.028C385.995 93.3031 292.328 122.048 203.897 191.138C115.465 260.228 64.9139 344.159 94.388 381.885ZM106.979 372.047C97.2046 359.536 101.475 334.976 120.098 304.056C139.708 271.498 172.997 235.557 213.734 203.73C254.471 171.902 297.398 148.297 333.733 137.146C368.239 126.557 393.103 128.354 402.878 140.866C412.653 153.377 408.382 177.937 389.76 208.856C370.15 241.415 336.86 277.356 296.123 309.183C255.386 341.01 212.459 364.616 176.124 375.767C141.618 386.356 116.754 384.558 106.979 372.047Z" fill="white"/>
<path d="M415.469 381.885C444.944 344.159 394.392 260.228 305.961 191.138C217.53 122.048 123.862 93.3031 94.388 131.028C64.9139 168.753 115.465 252.684 203.897 321.774C292.328 390.864 385.995 419.61 415.469 381.885ZM402.878 372.047C393.103 384.558 368.239 386.356 333.733 375.767C297.398 364.616 254.471 341.01 213.734 309.183C172.997 277.356 139.708 241.415 120.098 208.856C101.475 177.937 97.2046 153.377 106.979 140.866C116.754 128.354 141.618 126.557 176.124 137.146C212.459 148.297 255.386 171.902 296.123 203.73C336.86 235.557 370.15 271.498 389.76 304.056C408.382 334.976 412.653 359.536 402.878 372.047Z" fill="white"/>
<path d="M254.928 290.411C273.681 290.411 288.883 275.209 288.883 256.456C288.883 237.704 273.681 222.501 254.928 222.501C236.176 222.501 220.974 237.704 220.974 256.456C220.974 275.209 236.176 290.411 254.928 290.411Z" fill="white"/>
</svg>
