<svg width="512" height="512" viewBox="0 0 512 512" fill="none" xmlns="http://www.w3.org/2000/svg">
<path fill-rule="evenodd" clip-rule="evenodd" d="M302.105 373.064C300.416 373.485 298.928 373.806 297.687 374.012C296.38 374.229 294.963 374.449 293.437 374.666C292.032 374.865 290.643 374.968 289.306 374.968C285.934 374.968 283.452 373.851 281.714 371.551C279.795 369.019 278.862 366.504 278.862 363.861V216.729H268.811V363.861C268.811 369.382 270.554 374.267 273.994 378.373C277.558 382.638 282.635 384.797 289.084 384.797C291.107 384.797 293.114 384.678 295.054 384.446C296.925 384.222 298.607 383.997 300.113 383.773C301.652 383.541 303.432 383.193 305.409 382.739L308.817 381.952L304.343 372.504L302.105 373.064ZM82.942 299.204C90.2056 300.43 96.8892 302.647 102.804 305.795C108.867 309.023 113.82 313.502 117.53 319.101C121.288 324.781 123.192 331.959 123.192 340.436C123.192 348.802 121.159 355.924 117.152 361.616C113.25 367.157 108.193 371.745 102.115 375.251C96.1326 378.704 89.5297 381.188 82.493 382.643C75.5522 384.073 68.8182 384.8 62.4726 384.8C49.1281 384.8 37.2919 382.285 27.2968 377.324C17.4227 372.426 8.956 366.487 2.13875 359.664L0 357.526L7.61928 350.923L9.47303 352.852C16.3786 360.04 24.5603 365.541 33.7861 369.2C43.0523 372.883 52.7044 374.749 62.4726 374.749C68.2911 374.749 74.3441 374.101 80.4602 372.82C86.4805 371.561 92.0014 369.508 96.8791 366.721C101.653 363.992 105.623 360.403 108.68 356.055C111.638 351.846 113.142 346.595 113.142 340.436C113.142 333.578 111.58 328.009 108.506 323.886C105.328 319.626 101.205 316.229 96.2562 313.785C91.1767 311.283 85.517 309.588 79.4362 308.748C73.1865 307.883 67.1082 307.449 61.3679 307.449C54.1471 307.449 47.0474 306.761 40.2629 305.404C33.3195 304.014 27.0925 301.621 21.7557 298.291C16.3054 294.897 11.8615 290.294 8.54742 284.614C5.21319 278.899 3.52086 271.729 3.52086 263.305C3.52086 255.279 5.34686 248.374 8.94087 242.777C12.4794 237.277 17.1402 232.775 22.7948 229.395C28.3308 226.089 34.5276 223.672 41.2087 222.21C47.7914 220.772 54.3514 220.046 60.7046 220.046C67.3276 220.046 73.2697 220.545 78.3669 221.534C83.517 222.535 88.2006 224.02 92.2939 225.95C96.4403 227.907 100.135 230.376 103.28 233.279C106.362 236.134 109.243 239.441 111.843 243.113L113.871 245.975L104.317 249.996L103.02 248.091C100.705 244.692 97.951 241.796 94.8337 239.488C91.671 237.156 88.1854 235.272 84.4779 233.897C80.7023 232.502 76.7729 231.511 72.8006 230.951C62.6214 229.531 52.6288 229.907 43.1684 231.915C37.6122 233.095 32.5881 235.024 28.235 237.65C23.9903 240.21 20.4694 243.66 17.7758 247.907C15.1175 252.086 13.7051 257.287 13.574 263.365C13.574 270.248 14.951 275.953 17.6699 280.256C20.4265 284.629 24.0331 288.102 28.3939 290.584C32.8757 293.136 38.0283 294.922 43.7182 295.89C49.5619 296.889 55.4989 297.396 61.3679 297.396C68.5483 297.396 75.8069 298.004 82.942 299.204ZM216.41 267.224C223.398 270.911 229.474 275.744 234.473 281.585C239.462 287.424 243.351 294.15 246.032 301.578C248.708 309.005 250.067 316.503 250.067 323.86C250.067 331.984 248.587 339.843 245.668 347.218C242.758 354.575 238.675 361.183 233.537 366.857C228.379 372.552 222.256 377.158 215.335 380.537C208.364 383.942 200.755 385.75 192.719 385.904H192.666H192.613C184.122 385.75 176.237 383.864 169.183 380.298C162.182 376.762 156.093 372.038 151.087 366.26C146.103 360.507 142.179 353.904 139.422 346.628C136.661 339.346 135.261 331.687 135.261 323.86C135.261 315.58 136.779 307.57 139.77 300.057C142.756 292.554 146.875 285.873 152.013 280.2C157.17 274.505 163.302 269.935 170.235 266.621C177.219 263.287 184.765 261.595 192.664 261.595C201.335 261.595 209.325 263.486 216.41 267.224ZM173.935 371.627C179.473 374.431 185.773 375.854 192.664 375.854C199.688 375.854 206.162 374.328 211.91 371.314C217.746 368.257 222.816 364.209 226.98 359.284C231.161 354.335 234.412 348.681 236.649 342.466C238.881 336.242 240.016 329.979 240.016 323.861C240.016 317.18 238.781 310.607 236.342 304.327C233.893 298.039 230.498 292.412 226.248 287.6C222.009 282.808 216.937 278.899 211.171 275.981C205.484 273.106 199.257 271.645 192.664 271.645C185.652 271.645 179.186 273.207 173.44 276.284C167.597 279.416 162.52 283.504 158.348 288.44C154.164 293.394 150.913 299.051 148.681 305.252C146.446 311.475 145.311 317.734 145.311 323.861C145.586 330.486 146.941 337.104 149.329 343.417C151.7 349.702 155.024 355.326 159.208 360.136C163.37 364.925 168.323 368.789 173.935 371.627ZM331.674 285.648C335.627 280.061 340.244 275.396 345.473 271.721C353.362 266.175 362.792 263.363 373.504 263.363H376.318V273.277L373.645 273.411C368.086 273.691 362.969 274.775 358.434 276.631C353.887 278.49 349.806 281 346.3 284.092C342.794 287.186 339.79 290.889 337.377 295.093C334.983 299.267 333.067 303.87 331.674 308.778V383.695H321.624V263.363H331.674V285.648Z" fill="#262130"/>
<path fill-rule="evenodd" clip-rule="evenodd" d="M394.778 133.487C404.795 129.313 415.782 127 427.313 127C431.424 127 435.462 127.308 439.416 127.875L383.61 227.597L394.778 133.487ZM405.835 243.748L489.064 153.767C499.763 165.17 507.339 179.525 510.434 195.49L405.835 243.748ZM511.264 200.673L412.15 256.139L505.14 245.105C509.549 234.853 512 223.559 512 211.69C512 207.952 511.733 204.282 511.264 200.673ZM501.488 252.568C494.993 264.324 485.798 274.377 474.723 281.872L414.326 269.877L501.488 252.568ZM444.519 128.753L396.001 233.912L486.002 150.668C474.716 139.81 460.441 132.039 444.519 128.753ZM460.973 289.408C452.71 292.992 443.767 295.285 434.39 296.062L412.15 283.615L460.973 289.408ZM350.116 176.875C346.308 185.306 343.838 194.464 342.981 204.093L356.134 227.599L350.116 176.875ZM357.597 163.621C365.259 152.531 375.489 143.361 387.438 136.97L369.872 225.423L357.597 163.621Z" fill="#D84327"/>
</svg>
