<svg xmlns="http://www.w3.org/2000/svg" id="saw-blade-mcs_svg__Artboard_1" data-name="Artboard 1" viewBox="0 0 2235.75 200.76" class="h-6 @sm:h-8 hover:scale-105 transition transition-scale"><defs><style>.saw-blade-mcs_svg__cls-2{stroke-width:0;fill:#2c6794}</style></defs><path d="M193.89 107.5c-3.45-10.14-10.65-19.23-20.06-24.81-.41-1.7-.91-3.37-1.46-5.02 9.17-.61 18.02.83 26.38 4.16-2.05-23.92-23.35-42.74-47.03-42.19-2.21.04-4.44.22-6.68.58a80.204 80.204 0 0 0-4.34-2.92c6.63-6.34 14.32-10.96 22.88-13.75-16.96-17.01-45.37-17.74-63.15-2.08a47.12 47.12 0 0 0-4.75 4.73c-1.74.12-3.47.3-5.19.56.98-9.13 3.96-17.58 8.68-25.25-26.35-2.43-50.26 19.52-50.3 45.7-1.25 1.2-2.46 2.46-3.62 3.76-5.1-7.65-8.3-16.02-9.58-24.94C13.93 41.1 9.68 73.29 26.5 93.36c-.18 1.75-.3 3.5-.36 5.23-8.83-2.57-16.65-6.94-23.37-12.95-3.79 14.14-.07 30.25 8.93 41.02 6.72 8.37 16.61 14.45 27.36 16.47.98 1.44 1.98 2.86 3.07 4.21a60.147 60.147 0 0 1-17.15 4.71c-3.03.37-6.07.5-9.07.4 11.04 24.04 42.03 33.78 64.72 20.72 1.68.47 3.36.9 5.07 1.24-4.06 8.27-9.73 15.19-16.81 20.78 13.26 6.21 29.77 5.32 41.94-1.66 9.4-5.16 17.09-13.85 20.96-24.08 1.59-.71 3.14-1.49 4.69-2.3 2.17 8.94 2.31 17.9.47 26.72 25.58-6.73 40.55-35.51 31.65-60.13.75-1.55 1.46-3.15 2.11-4.78 7.43 5.43 13.25 12.22 17.54 20.15 1.79-2.62 3.38-5.52 4.62-8.54 4.54-10.92 4.61-22.63 1.03-33.05Zm-93.19 18.47c-13.81 0-25-11.19-25-25s11.19-25 25-25 25 11.19 25 25-11.19 25-25 25Z" style="stroke-width:0;fill:#e08743"></path><path d="M248.47 36.43h34.54l29.24 71.9 29.33-71.9h34.54v125.01h-32.64V99.21l-21.37 55.14h-19.63l-21.37-55.14v62.23h-32.64V36.43ZM393.61 98.76c0-36.82 24.85-64.16 60.39-64.16 21.21 0 39.85 12.52 48.96 31.3l-24.02 18.5c-4.47-9.48-11.85-17.68-24.93-17.68-16.49 0-26.92 12.98-26.92 32.04s10.85 32.4 26.92 32.4c11.43 0 20.54-6.54 26.51-17.86l23.61 18.32c-8.2 18.32-28.58 31.67-50.12 31.67-35.54 0-60.39-27.71-60.39-64.53ZM518.71 36.43h26.92l47.96 66.74V36.43h32.14v125.01h-25.76l-49.12-66.92v66.92h-32.14V36.43ZM650.6 36.43h82.18v29.46h-49.21V83.2h43.16v29.37h-43.16v19.52h50.04v29.37H650.6V36.43ZM784.14 161.45h-33.05V36.43h33.05v125.01ZM896.06 161.45h-87.07V36.43h33.05v95.74h54.01v29.27ZM935.17 98.76c0-36.82 24.85-64.16 60.39-64.16 21.21 0 39.85 12.52 48.96 31.3l-24.02 18.5c-4.47-9.48-11.85-17.68-24.93-17.68-16.49 0-26.92 12.98-26.92 32.04s10.85 32.4 26.92 32.4c11.43 0 20.54-6.54 26.51-17.86l23.61 18.32c-8.2 18.32-28.58 31.67-50.12 31.67-35.54 0-60.39-27.71-60.39-64.53ZM1092.07 36.43v76.59c0 13.07 7.21 18.96 15.82 18.96s15.91-5.89 15.91-18.96V36.43h33.05v79.26c0 32.31-20.21 47.59-48.96 47.59s-48.88-15.28-48.88-47.59V36.43h33.05ZM1197.12 116.06c6.63 10.86 15.91 16.85 26.26 16.85 7.21 0 12.67-3.5 12.67-8.19 0-5.89-6.05-7.55-20.88-12.52-18.56-6.17-37.61-14.27-37.61-39.4 0-23.57 20.88-38.2 42.99-38.2s34.71 11.05 44.24 27.43l-22.45 17.31c-4.47-8.19-12.51-14.45-22.12-14.45-5.38 0-10.69 2.49-10.69 7.82 0 5.8 6.71 8.65 15.16 11.32 25.35 7.92 43.33 16.94 43.33 40.78 0 25.68-23.61 38.48-44.9 38.48s-39.68-10.68-49.62-28.91l23.61-18.32ZM1270.69 36.43h98v30.01h-32.89v95h-33.05v-95h-32.06V36.43ZM1368.36 98.76c0-37.83 24.94-64.16 59.73-64.16s59.23 26.42 59.23 64.25-24.77 64.44-59.23 64.44-59.73-26.51-59.73-64.53Zm59.89 31.85c15.33 0 25.6-12.89 25.6-31.76s-10.27-31.3-25.6-31.3-26.34 12.7-26.34 31.3 10.6 31.76 26.34 31.76ZM1504.89 36.43h34.54l29.24 71.9 29.33-71.9h34.54v125.01h-32.64V99.21l-21.37 55.14h-19.63l-21.37-55.14v62.23h-32.64V36.43ZM1712.5 116.06c6.63 10.86 15.91 16.85 26.26 16.85 7.21 0 12.67-3.5 12.67-8.19 0-5.89-6.05-7.55-20.88-12.52-18.56-6.17-37.61-14.27-37.61-39.4 0-23.57 20.88-38.2 42.99-38.2s34.71 11.05 44.24 27.43l-22.45 17.31c-4.47-8.19-12.51-14.45-22.12-14.45-5.38 0-10.69 2.49-10.69 7.82 0 5.8 6.71 8.65 15.16 11.32 25.35 7.92 43.33 16.94 43.33 40.78 0 25.68-23.61 38.48-44.9 38.48s-39.68-10.68-49.62-28.91l23.61-18.32ZM1786.07 36.43h98v30.01h-32.89v95h-33.05v-95h-32.06V36.43ZM1883.74 98.76c0-37.83 24.94-64.16 59.73-64.16s59.23 26.42 59.23 64.25-24.77 64.44-59.23 64.44-59.73-26.51-59.73-64.53Zm59.89 31.85c15.33 0 25.6-12.89 25.6-31.76s-10.27-31.3-25.6-31.3-26.34 12.7-26.34 31.3 10.6 31.76 26.34 31.76ZM2020.27 36.43h26.92l47.96 66.74V36.43h32.14v125.01h-25.76l-49.12-66.92v66.92h-32.14V36.43ZM2152.15 36.43h82.18v29.46h-49.21V83.2h43.16v29.37h-43.16v19.52h50.04v29.37h-83.01V36.43Z" class="saw-blade-mcs_svg__cls-2"></path></svg>